M48
METRIC,LZ,000.000
;FILE_FORMAT=3:3
;TYPE=NON_PLATED
;Layer: NPTH_Through
;EasyEDA v6.5.51, 2026-01-01 13:14:23
;1b165cbd6425478fbc72b3ae23cde7e1,bbfce3e164b04fcf8da2c009f43f1b6f,10
;Gerber Generator version 0.2
;Holesize 1 = 1.703 mm
T01C1.703
;Holesize 2 = 3.000 mm
T02C3.000
;Holesize 3 = 3.989 mm
T03C3.989
%
G05
G90
T01
X014610Y028370
X004450Y028370
X033610Y028370
X023450Y028370
X052610Y028370
X042450Y028370
X014710Y009770
X004550Y009770
X033610Y009820
X023450Y009820
X052610Y009820
X042450Y009820
T02
X035850Y039450
X058650Y001400
X004900Y001650
T03
X009530Y028370
X028530Y028370
X047530Y028370
X009630Y009770
X028530Y009820
X047530Y009820
M30
