M48
METRIC,LZ,000.000
;FILE_FORMAT=3:3
;TYPE=PLATED
;Layer: PTH_Through
;EasyEDA v6.5.51, 2026-01-01 13:14:23
;1b165cbd6425478fbc72b3ae23cde7e1,bbfce3e164b04fcf8da2c009f43f1b6f,10
;Gerber Generator version 0.2
;Holesize 1 = 0.306 mm
T01C0.306
;Holesize 2 = 0.800 mm
T02C0.800
;Holesize 3 = 0.900 mm
T03C0.900
;Holesize 4 = 0.914 mm
T04C0.914
;Holesize 5 = 0.915 mm
T05C0.915
;Holesize 6 = 1.200 mm
T06C1.200
;Holesize 7 = 1.400 mm
T07C1.400
%
G05
G90
T01
X051550Y031958
X066244Y037415
X066633Y016583
X067203Y041148
T02
X019050Y033550
X019050Y025350
X038100Y033650
X038100Y025450
X057150Y033650
X057150Y025450
X019050Y014950
X019050Y006750
X038000Y014750
X038000Y006550
X057100Y014750
X057100Y006550
T03
X071460Y020550
X063840Y020550
X072310Y002550
X064690Y002550
T04
X005720Y030910
X012070Y033450
X024720Y030910
X031070Y033450
X043720Y030910
X050070Y033450
X005820Y012310
X012170Y014850
X024720Y012360
X031070Y014900
X043720Y012360
X050070Y014900
T05
X039548Y047596
X039548Y045056
X039548Y042516
X039548Y039976
T06
X060750Y006000
X060750Y011000
X075250Y006000
X075250Y008500
X075250Y011000
T07
X068250Y002800G85X067250Y002800
X068250Y014200G85X067250Y014200
M30
