G04 Layer: BottomLayer*
G04 EasyEDA v6.5.51, 2026-01-01 13:14:23*
G04 1b165cbd6425478fbc72b3ae23cde7e1,bbfce3e164b04fcf8da2c009f43f1b6f,10*
G04 Gerber Generator version 0.2*
G04 Scale: 100 percent, Rotated: No, Reflected: No *
G04 Dimensions in millimeters *
G04 leading zeros omitted , absolute positions ,4 integer and 5 decimal *
%FSLAX45Y45*%
%MOMM*%

%ADD10C,0.2540*%
%ADD11O,2.74828X1.99898*%
%ADD12C,1.5240*%
%ADD13C,1.6000*%
%ADD14C,1.8796*%
%ADD15C,1.8000*%
%ADD16O,3.799992X2.399995*%
%ADD17O,0.0151X2.399995*%
%ADD18C,1.4990*%
%ADD19C,0.6100*%

%LPD*%
D10*
X7145995Y2054999D02*
G01*
X7145995Y4364799D01*
X6908225Y4602568D01*
X6908225Y4094568D02*
G01*
X6887956Y4114838D01*
X6720265Y4114838D01*
X2471988Y1236002D02*
G01*
X2471988Y3090989D01*
X2471988Y3090989D02*
G01*
X2967568Y3586568D01*
X5291769Y3586568D01*
X3954790Y4251591D02*
G01*
X4559767Y4856568D01*
X5291769Y4856568D01*
X5291769Y4856568D02*
G01*
X6383995Y3764343D01*
X6383995Y2054999D01*
X6468983Y255003D02*
G01*
X6556943Y342963D01*
X6556943Y1551952D01*
X6663319Y1658327D01*
X3954790Y3997591D02*
G01*
X4559767Y4602568D01*
X5291769Y4602568D01*
X6075004Y1100010D02*
G01*
X6075004Y3819334D01*
X5291769Y4602568D01*
X7524988Y600011D02*
G01*
X7230983Y306006D01*
X7230983Y255003D01*
X6908225Y4856568D02*
G01*
X7393086Y4371708D01*
X7393086Y731913D01*
X7524988Y600011D01*
X6908225Y4348568D02*
G01*
X7077847Y4178947D01*
X7077847Y2160866D01*
X6489964Y1572983D01*
X6489964Y1014971D01*
X6075004Y600011D01*
X4371985Y1236002D02*
G01*
X4371985Y3090989D01*
X5291769Y3840568D02*
G01*
X5462280Y3670058D01*
X5462280Y3277755D01*
X5275513Y3090989D01*
X4371985Y3090989D01*
X6908225Y3332568D02*
G01*
X6908225Y2166835D01*
X6239520Y1498130D01*
X6239520Y1079157D01*
X5815365Y655002D01*
X5709980Y655002D01*
X6908225Y3586568D02*
G01*
X6779320Y3586568D01*
X6624406Y3741483D01*
X3954790Y4759591D02*
G01*
X4186107Y4990909D01*
X5757885Y4990909D01*
X6908225Y3840568D01*
X5291769Y3332568D02*
G01*
X5155041Y3195840D01*
D11*
G01*
X6908218Y4856563D03*
G01*
X6908218Y4602563D03*
G01*
X6908218Y4348563D03*
G01*
X6908218Y4094563D03*
G01*
X6908218Y3840563D03*
G01*
X6908218Y3586563D03*
G01*
X6908218Y3332563D03*
G01*
X5291757Y3332563D03*
G01*
X5291757Y3586563D03*
G01*
X5291757Y3840563D03*
G01*
X5291757Y4094563D03*
G01*
X5291757Y4348563D03*
G01*
X5291757Y4602563D03*
G01*
X5291757Y4856563D03*
D12*
G01*
X3954800Y4759599D03*
G01*
X3954800Y4505599D03*
G01*
X3954800Y4251599D03*
G01*
X3954800Y3997599D03*
D13*
G01*
X1904997Y3354999D03*
G01*
X1904997Y2534986D03*
G01*
X3809992Y3364999D03*
G01*
X3809992Y2544986D03*
G01*
X5714989Y3364999D03*
G01*
X5714989Y2544986D03*
G01*
X1904997Y1495003D03*
G01*
X1904997Y674989D03*
G01*
X3799992Y1475003D03*
G01*
X3799992Y654989D03*
G01*
X5709988Y1475003D03*
G01*
X5709988Y654989D03*
D14*
G01*
X7145987Y2054994D03*
G01*
X6383987Y2054994D03*
G01*
X7230986Y254993D03*
G01*
X6468986Y254993D03*
D15*
G01*
X6074994Y600011D03*
G01*
X6074994Y1100013D03*
G01*
X7524976Y600011D03*
G01*
X7524976Y849998D03*
G01*
X7524976Y1100013D03*
D16*
G01*
X6774992Y279996D03*
G01*
X6774992Y1419999D03*
D18*
G01*
X571997Y3090994D03*
G01*
X1206997Y3344994D03*
G01*
X2471994Y3090994D03*
G01*
X3106994Y3344994D03*
G01*
X4371990Y3090994D03*
G01*
X5006990Y3344994D03*
G01*
X581995Y1230998D03*
G01*
X1216997Y1484998D03*
G01*
X2471994Y1235999D03*
G01*
X3106994Y1489999D03*
G01*
X4371990Y1235999D03*
G01*
X5006990Y1489999D03*
D19*
G01*
X5155041Y3195840D03*
G01*
X6624406Y3741483D03*
G01*
X6663319Y1658327D03*
G01*
X6720265Y4114838D03*
M02*
